<svg xmlns="http://www.w3.org/2000/svg" width="35" height="35.001" viewBox="0 0 35 35.001">
  <g id="Bluetooth_icon" data-name="Bluetooth icon" transform="translate(12184.225 437.81)">
    <rect id="_40x40_Layout" data-name="40x40 Layout" width="35" height="35" transform="translate(-12184.225 -437.81)" opacity="0"/>
    <path id="Bluetooth_icon-2" data-name="Bluetooth icon" d="M18.214,35H13.842V23.356L5.906,30.444l-3.279-2.93,10.254-9.167L2.627,9.184,5.906,6.251l7.935,7.091V0h4.64V.239l10.4,9.293-.214.193.214.193-9.434,8.428,8.613,7.7-.088.077.088.078L18.482,34.76V35Zm.268-6.1,3.1-2.772-3.1-2.772Zm0-15.555,4.051-3.616L18.482,6.106Zm7.039,4.292L28.964,14l3.448,3.634-3.448,3.63ZM0,17.633,3.448,14,6.9,17.633l-3.448,3.63Z" transform="translate(-12182.477 -437.81)" fill="#fff"/>
  </g>
</svg>
