<svg xmlns="http://www.w3.org/2000/svg" width="40" height="40" viewBox="0 0 40 40">
  <g id="Navigation" transform="translate(-25 -214.5)">
    <rect id="Option_icons" width="40" height="40" transform="translate(25 214.5)" fill="#004654" opacity="0"/>
    <path id="Union_30" data-name="Union 30" d="M15.09,35V30.182h4.819V35ZM3.421,28.172l3.407-3.407,3.408,3.407L6.828,31.579Zm21.342,0,3.407-3.408,3.407,3.408L28.17,31.578ZM13.917,25.68a8.906,8.906,0,1,1,3.455.7A8.852,8.852,0,0,1,13.917,25.68Zm-1.871-8.053A5.453,5.453,0,1,0,17.5,12.175,5.459,5.459,0,0,0,12.047,17.627ZM30.18,19.91V15.091H35V19.91ZM0,19.91V15.091H4.818V19.91ZM24.762,6.83,28.17,3.423,31.577,6.83,28.17,10.238Zm-21.341,0L6.829,3.422l3.407,3.407L6.829,10.237ZM15.09,4.82V0h4.819V4.82Z" transform="translate(28.001 217.499)" fill="#004654"/>
  </g>
</svg>
