<svg xmlns="http://www.w3.org/2000/svg" width="36.001" height="35.024" viewBox="0 0 36.001 35.024">
  <g id="Call_icon" data-name="Call icon" transform="translate(-616.498 -19.976)">
    <rect id="_40x40_Layout" data-name="40x40 Layout" width="35" height="35" transform="translate(617 20)" opacity="0"/>
    <path id="Call_icon-2" data-name="Call icon" d="M24.355,33.251a31.861,31.861,0,0,1-3.617-.983,30.321,30.321,0,0,1-9.083-4.946c-.458-.345-1.907-1.6-2.251-1.934L8.2,24.2c-.1-.1-.2-.208-.288-.3-.392-.405-.762-.8-1.139-1.233a26.181,26.181,0,0,1-5.579-8.906c-.226-.6-.419-1.216-.621-1.85l-.359-1.2c-.054-.1-.071-.067-.095-.18L0,8.769A10.718,10.718,0,0,1,.646,6a7.761,7.761,0,0,1,2.211-3.66,5.376,5.376,0,0,1,.737-.479,6.886,6.886,0,0,1,1.831-.634C6.687.948,7.2.8,7.973,1.9c.815,1.177,1.564,2.456,2.361,3.646.317.475.665.976,1,1.42a6.087,6.087,0,0,1,.923,1.48c.311.987-.669,1.659-1.211,2.244-.35.377-.825.789-1.2,1.17-.485.5-1.5,1.283-1.511,2.019a3.779,3.779,0,0,0,.739,1.7A26.876,26.876,0,0,0,12.2,19.645c.2.215.391.409.588.609.052.06.1.088.162.148a18.754,18.754,0,0,0,1.9,1.677c.067.049.1.092.163.144l.679.507c.529.394,1.162.793,1.744,1.17a27.553,27.553,0,0,0,3.058,1.607,2.117,2.117,0,0,0,1.854.232A8.455,8.455,0,0,0,24,23.84c.254-.338.5-.712.763-1.029.06-.067.075-.105.131-.176l.66-.775a1.377,1.377,0,0,1,1.709-.405c.28.1,4.527,2.227,4.675,2.3.528.264,1.061.521,1.563.782s.825.507,1.273.789c.1.064.1.049.155.137.025.391.066.81.074,1.194.007.2-.047.116-.071.525a5.637,5.637,0,0,1-2.959,4.682,13.327,13.327,0,0,1-3.4,1.487,9.79,9.79,0,0,1-4.217-.106ZM13.934,17.429a2.51,2.51,0,1,1,2.509,2.512A2.511,2.511,0,0,1,13.934,17.429ZM22.7,18.9a1.466,1.466,0,0,1-1.455-1.483v0a4.8,4.8,0,0,0-4.806-4.8,1.469,1.469,0,0,1,0-2.938,7.742,7.742,0,0,1,7.744,7.744v.028a1.471,1.471,0,0,1-1.47,1.455Zm3.389-1.476a9.642,9.642,0,0,0-9.647-9.643,1.471,1.471,0,0,1,0-2.942A12.581,12.581,0,0,1,29.027,17.429a1.469,1.469,0,1,1-2.937,0Zm4.85,0v0A14.492,14.492,0,0,0,16.446,2.938a1.469,1.469,0,0,1,0-2.938h0A17.429,17.429,0,0,1,33.879,17.432a1.47,1.47,0,0,1-1.445,1.445h-.026A1.471,1.471,0,0,1,30.939,17.432Z" transform="translate(617 20.476)" fill="#fff" stroke="rgba(0,0,0,0)" stroke-miterlimit="10" stroke-width="1"/>
  </g>
</svg>
