<svg id="Group_389" data-name="Group 389" xmlns="http://www.w3.org/2000/svg" width="60" height="60" viewBox="0 0 60 60">
  <rect id="Rectangle_211" data-name="Rectangle 211" width="60" height="60" opacity="0"/>
  <path id="Union_6" data-name="Union 6" d="M34.792,47.5a44.37,44.37,0,0,1-5.169-1.4A43.31,43.31,0,0,1,16.65,39.031c-.657-.495-2.725-2.278-3.217-2.762l-1.727-1.691c-.142-.139-.28-.3-.413-.43-.559-.584-1.084-1.146-1.624-1.764-3.706-4.248-5.932-7.3-7.974-12.722-.324-.861-.6-1.738-.885-2.643L.3,15.306c-.079-.142-.1-.093-.138-.252L0,12.528A15.2,15.2,0,0,1,.922,8.571,11.047,11.047,0,0,1,4.08,3.343a7.153,7.153,0,0,1,1.053-.684A9.855,9.855,0,0,1,7.752,1.75c1.8-.392,2.534-.6,3.636.974C12.552,4.4,13.627,6.232,14.76,7.933c.453.678.954,1.391,1.433,2.025a8.713,8.713,0,0,1,1.315,2.114c.443,1.407-.952,2.369-1.73,3.207-.5.539-1.179,1.126-1.714,1.671-.7.709-2.151,1.83-2.16,2.881a5.412,5.412,0,0,0,1.057,2.432,38.475,38.475,0,0,0,4.46,5.8c.285.307.562.581.842.869.077.083.145.123.231.208a26.459,26.459,0,0,0,2.715,2.4c.093.07.138.128.232.2l.972.727c.754.565,1.658,1.132,2.49,1.669a39,39,0,0,0,4.37,2.3c.73.328,1.766.82,2.645.334a12.063,12.063,0,0,0,2.358-2.712c.364-.485.716-1.018,1.094-1.47.086-.1.106-.153.185-.255l.941-1.106a1.972,1.972,0,0,1,2.445-.578c.4.145,6.464,3.183,6.676,3.29.754.379,1.513.747,2.236,1.119s1.175.726,1.814,1.124c.145.092.155.073.224.2h0c.032.558.092,1.159.1,1.708.01.284-.066.164-.1.752a8.046,8.046,0,0,1-4.227,6.686,19.074,19.074,0,0,1-4.852,2.124,13.935,13.935,0,0,1-6.025-.153ZM19.837,24.954a3.595,3.595,0,1,1,3.594,3.594A3.6,3.6,0,0,1,19.837,24.954Zm12.55,2.113A2.1,2.1,0,0,1,30.3,24.943v0a6.878,6.878,0,0,0-6.881-6.877,2.1,2.1,0,0,1,0-4.207A11.084,11.084,0,0,1,34.511,24.943v.04a2.1,2.1,0,0,1-2.1,2.084Zm4.853-2.113v0a13.807,13.807,0,0,0-13.809-13.8,2.1,2.1,0,0,1,0-4.208A18.013,18.013,0,0,1,41.447,24.954a2.1,2.1,0,1,1-4.207,0Zm6.946,0v0A20.749,20.749,0,0,0,23.437,4.207a2.1,2.1,0,0,1,0-4.207h0A24.957,24.957,0,0,1,48.4,24.959a2.106,2.106,0,0,1-2.068,2.068H46.29A2.105,2.105,0,0,1,44.186,24.959Z" transform="translate(5 6)" fill="#fff" stroke="rgba(0,0,0,0)" stroke-miterlimit="10" stroke-width="1"/>
</svg>
