<svg xmlns="http://www.w3.org/2000/svg" width="40" height="40" viewBox="0 0 40 40">
  <g id="Navigation" transform="translate(-25 -217.5)">
    <rect id="Option_icons" width="40" height="40" transform="translate(25 217.5)" fill="#fff" opacity="0"/>
    <path id="Union_26" data-name="Union 26" d="M2,40a2,2,0,0,1-2-2V10.317a2,2,0,0,1,2-2H24.931a2,2,0,0,1,2,2V38a2,2,0,0,1-2,2ZM20.2,13.663V36.238a1.782,1.782,0,0,0,3.564,0V13.663a1.782,1.782,0,0,0-3.564,0Zm-5.545,0V36.238a1.782,1.782,0,0,0,3.565,0V13.663a1.782,1.782,0,0,0-3.565,0Zm-5.544,0V36.238a1.782,1.782,0,0,0,3.564,0V13.663a1.782,1.782,0,0,0-3.564,0Zm-5.545,0V36.238a1.782,1.782,0,0,0,3.564,0V13.663a1.782,1.782,0,0,0-3.564,0ZM1.48,6.337a1.481,1.481,0,0,1,0-2.961h9.788A1.98,1.98,0,0,1,12.673,0h1.585a1.98,1.98,0,0,1,1.4,3.376H25.45a1.481,1.481,0,0,1,0,2.961Z" transform="translate(32 217.5)" fill="#00839e"/>
  </g>
</svg>
