<svg xmlns="http://www.w3.org/2000/svg" width="40" height="40" viewBox="0 0 40 40">
  <g id="Navigation" transform="translate(-25 -217.5)">
    <rect id="Option_icons" width="40" height="40" transform="translate(25 217.5)" fill="#004654" opacity="0"/>
    <path id="Subtraction_11" data-name="Subtraction 11" d="M28.364,40H3a3,3,0,0,1-3-3V3A3,3,0,0,1,3,0H21.545V6.455a3,3,0,0,0,3,3h6.817V37A3,3,0,0,1,28.364,40ZM4.773,31.363a1.137,1.137,0,0,0,0,2.273H26.591a1.137,1.137,0,0,0,0-2.273Zm0-3.181a1.136,1.136,0,1,0,0,2.273H26.591a1.136,1.136,0,1,0,0-2.273Zm0-3.636a1.136,1.136,0,1,0,0,2.272H26.591a1.136,1.136,0,1,0,0-2.272Zm0-3.182a1.137,1.137,0,1,0,0,2.273H26.591a1.137,1.137,0,0,0,0-2.273Zm0-3.636a1.136,1.136,0,1,0,0,2.272H26.591a1.136,1.136,0,1,0,0-2.272Zm0-3.182a1.136,1.136,0,1,0,0,2.273H26.591a1.136,1.136,0,1,0,0-2.273ZM6.818,3.636A3.182,3.182,0,1,0,10,6.818,3.186,3.186,0,0,0,6.818,3.636ZM31.363,7.273H25.727a2,2,0,0,1-2-2V0h4.637a3,3,0,0,1,3,3V7.272Z" transform="translate(29 217.5)" fill="#004654"/>
  </g>
</svg>
