<svg xmlns="http://www.w3.org/2000/svg" width="35" height="35" viewBox="0 0 35 35">
  <g id="Turbo_Icon" data-name="Turbo Icon" transform="translate(-761 -92)">
    <rect id="Layout" width="35" height="35" transform="translate(761 92)" opacity="0"/>
    <path id="Eco_Icon" data-name="Eco Icon" d="M642.328,188.882h0c-.005-.258-.016-.517-.034-.774a13.4,13.4,0,0,0-1.174-4.661,13.178,13.178,0,0,0-2.767-3.912.242.242,0,0,0-.089-.053.217.217,0,0,0-.27.145l0,0a3.916,3.916,0,0,1-.329.866,4.35,4.35,0,0,1-.518.773,6.111,6.111,0,0,1-1.419,1.222,15.837,15.837,0,0,0-17.164,26.428c-.128.347-.234.685-.319,1.011a9.681,9.681,0,0,0-.3,1.968c-.007.28-.016.52,0,.749.006.113.012.217.017.314,0,.047,0,.094.007.137s.007.073.011.105c.028.268.044.41.044.41,0,.016,0,.035.006.05a.96.96,0,0,0,1.9-.3l-.066-.407c0-.033-.01-.068-.016-.105s-.006-.063-.01-.1c-.007-.068-.014-.142-.023-.224-.018-.159-.019-.367-.027-.588a7.859,7.859,0,0,1,.162-1.612c.024-.12.052-.243.083-.367a15.839,15.839,0,0,0,22.306-21.078Zm-27.214,7.692a13.379,13.379,0,0,1,17.667-12.665c-.188.072-.375.141-.563.21-1.215.445-2.445.865-3.664,1.322a24.659,24.659,0,0,0-3.569,1.639,14.35,14.35,0,0,0-1.65,1.107c-.263.206-.511.422-.761.656-.116.114-.234.22-.35.341s-.238.243-.348.369A10.044,10.044,0,0,0,619.794,193a8.687,8.687,0,0,0-.432,2.008,8.1,8.1,0,0,0,.1,2.068,7.492,7.492,0,0,0,.652,1.974,7.189,7.189,0,0,0,.521.9,1.281,1.281,0,0,0,.8.609c.24.03.422-.219.511-.352,5.343-7.842,11.874-7.4,15.3-13.733a14.743,14.743,0,0,0,.968-2.223c-.086.251-.092.625-.2,1.073a12.186,12.186,0,0,1-.44,1.448c-.031.088-.065.176-.1.266a14.257,14.257,0,0,1-1.042,2.079,20.291,20.291,0,0,1-1.582,2.247c-.615.758-1.3,1.524-2.053,2.284-1.5,1.522-3.214,3.023-4.944,4.525s-3.474,3.011-5.006,4.572a27.543,27.543,0,0,0-2.1,2.384,17.913,17.913,0,0,0-1.057,1.512A13.33,13.33,0,0,1,615.114,196.574Zm13.37,13.37a13.305,13.305,0,0,1-7.538-2.327,15.863,15.863,0,0,1,.991-1.613,25.814,25.814,0,0,1,1.874-2.362c.069-.078.142-.157.212-.235l.057.03c.179.094.375.186.563.278a12.142,12.142,0,0,0,1.156.459,10.5,10.5,0,0,0,2.433.511,9.888,9.888,0,0,0,2.482-.1,10.823,10.823,0,0,0,2.375-.681,13.194,13.194,0,0,0,4.06-2.693,16.65,16.65,0,0,0,2.951-3.831,17.536,17.536,0,0,0,1.49-3.46,13.379,13.379,0,0,1-13.107,16.021Z" transform="translate(150.101 -87.472)" fill="lime"/>
  </g>
</svg>
