<svg xmlns="http://www.w3.org/2000/svg" width="41" height="40" viewBox="0 0 41 40">
  <g id="Group_337" data-name="Group 337" transform="translate(-25.5 -277.5)">
    <rect id="Option_icons" width="40" height="40" transform="translate(26 277.5)" fill="#004654" opacity="0"/>
    <path id="Gopro_camera" data-name="Gopro camera" d="M14258.775,1310.624a1.413,1.413,0,0,1-1.408-1.407v-25.6a1.415,1.415,0,0,1,1.408-1.416h12.881v17.181a1.086,1.086,0,0,0,1.084,1.088h24.627v8.75a1.417,1.417,0,0,1-1.416,1.407Zm.018-25.679v7.289a1.211,1.211,0,0,0,1.205,1.214h9.105a1.217,1.217,0,0,0,1.209-1.214v-7.289a1.219,1.219,0,0,0-1.209-1.209H14260A1.213,1.213,0,0,0,14258.793,1284.945Zm16.754,14.222a2.054,2.054,0,0,1-2.055-2.055v-11.551a2.054,2.054,0,0,1,2.055-2.055h17.928a2.052,2.052,0,0,1,2.055,2.055v11.551a2.052,2.052,0,0,1-2.055,2.055Zm2.707-7.837a6.254,6.254,0,1,0,6.254-6.255A6.256,6.256,0,0,0,14278.254,1291.33Zm5.279,4.146a4.249,4.249,0,1,1,.979.115A4.26,4.26,0,0,1,14283.533,1295.475Z" transform="translate(-14231.367 -999.697)" fill="#004654" stroke="rgba(0,0,0,0)" stroke-miterlimit="10" stroke-width="1"/>
  </g>
</svg>
