<svg xmlns="http://www.w3.org/2000/svg" width="36" height="35" viewBox="0 0 36 35">
  <g id="GoPro_icon" data-name="GoPro icon" transform="translate(-673.5 -20)">
    <rect id="_40x40_Layout" data-name="40x40 Layout" width="35" height="35" transform="translate(674 20)" opacity="0"/>
    <path id="GoPro_icon-2" data-name="GoPro icon" d="M1.234,24.874A1.235,1.235,0,0,1,0,23.641V1.24A1.237,1.237,0,0,1,1.234,0H12.5V15.037a.95.95,0,0,0,.952.948H35v7.656a1.238,1.238,0,0,1-1.24,1.233ZM1.249,2.407V8.783A1.058,1.058,0,0,0,2.3,9.844h7.966a1.062,1.062,0,0,0,1.056-1.06V2.407A1.062,1.062,0,0,0,10.271,1.35H2.3A1.057,1.057,0,0,0,1.249,2.407ZM15.936,14.822a1.793,1.793,0,0,1-1.792-1.793V2.938a1.793,1.793,0,0,1,1.792-1.793H31.6a1.789,1.789,0,0,1,1.793,1.793v10.09A1.789,1.789,0,0,1,31.6,14.822ZM18.3,7.98a5.464,5.464,0,1,0,5.464-5.464A5.465,5.465,0,0,0,18.3,7.98ZM22.9,11.6a3.714,3.714,0,1,1,.858.1A3.716,3.716,0,0,1,22.9,11.6Z" transform="translate(674 23.773)" fill="#fff" stroke="rgba(0,0,0,0)" stroke-miterlimit="10" stroke-width="1"/>
  </g>
</svg>
