<svg xmlns="http://www.w3.org/2000/svg" width="40" height="38.126" viewBox="0 0 40 38.126">
  <g id="Group_499" data-name="Group 499" transform="translate(-1.316 -343.63)">
    <path id="Union_37" data-name="Union 37" d="M17.247,38.126V32.878h5.506v5.248ZM28.3,30.688l3.893-3.714,3.9,3.714-3.9,3.711Zm-24.388,0,3.894-3.714L11.7,30.688,7.807,34.4Zm12-2.715A10.213,10.213,0,0,1,12.681,25.9a9.719,9.719,0,0,1-2.174-3.074,9.312,9.312,0,0,1,0-7.53,9.684,9.684,0,0,1,2.174-3.071,10.142,10.142,0,0,1,3.228-2.075,10.632,10.632,0,0,1,7.9,0,10.18,10.18,0,0,1,3.225,2.075A9.7,9.7,0,0,1,29.2,15.3a9.32,9.32,0,0,1,0,7.53A9.73,9.73,0,0,1,27.03,25.9a10.251,10.251,0,0,1-3.225,2.072,10.623,10.623,0,0,1-7.9,0Zm18.583-6.285V16.437H40v5.251ZM0,21.688V16.437H5.508v5.251ZM28.3,7.438l3.893-3.711,3.9,3.711-3.9,3.714Zm-24.388,0L7.807,3.727,11.7,7.438,7.807,11.152Zm13.334-2.19V0h5.506V5.248Z" transform="translate(1.316 343.63)" fill="#004654"/>
  </g>
</svg>
