<?xml version="1.0" encoding="UTF-8"?><svg id="uuid-1c79fcbf-0471-4874-9b78-5c7adace4aed" xmlns="http://www.w3.org/2000/svg" xmlns:xlink="http://www.w3.org/1999/xlink" viewBox="0 0 213.19 99.81"><defs><style>.uuid-38175528-8fa8-4c84-be48-320e52d67a9d{fill:#854397;}.uuid-b191bef6-6a06-4e4f-9565-5faa17ebd1eb{fill:#fff;}.uuid-1175948b-b771-4ac5-8b69-1f0953b3a372{fill:#42b549;}.uuid-40d67543-2e92-4398-a184-2c5cc64d82fb{fill:#d81f27;}.uuid-583e9581-4a38-4ac7-b108-6a7134e429ca{fill:#e5ae23;}.uuid-26a4a77e-c5e8-4092-8690-c68f961c32f9{fill:#2ea8e0;}.uuid-044e8d8a-88d2-487b-a820-52c9aff4d2a9{filter:url(#uuid-0fd2a67d-03ea-4896-bbd3-daabe59f6822);}</style><filter id="uuid-0fd2a67d-03ea-4896-bbd3-daabe59f6822" filterUnits="userSpaceOnUse"><feOffset dx="7" dy="7"/><feGaussianBlur result="uuid-4246decc-9f08-40e2-81a4-ccde69c58e9d" stdDeviation="5"/><feFlood flood-color="#000" flood-opacity=".5"/><feComposite in2="uuid-4246decc-9f08-40e2-81a4-ccde69c58e9d" operator="in"/><feComposite in="SourceGraphic"/></filter></defs><g class="uuid-044e8d8a-88d2-487b-a820-52c9aff4d2a9"><g><g><path class="uuid-b191bef6-6a06-4e4f-9565-5faa17ebd1eb" d="M166.97,63.28h-40.7v-5.37h5.37V14.92h-5.37v-5.37h38.99v10.75h-5.81v-5.37h-16.59v17.9h11.22v-3.59h5.37v12.56h-5.37v-3.59h-11.22v19.28h18.3v-5.85h5.81v11.65Z"/><path class="uuid-b191bef6-6a06-4e4f-9565-5faa17ebd1eb" d="M213.19,63.28h-40.88v-5.37h5.37V14.92h-5.37v-5.37h21.97v5.37h-5.37V57.47h18.48v-5.85h5.81v11.65Z"/></g><g><path class="uuid-b191bef6-6a06-4e4f-9565-5faa17ebd1eb" d="M16.12,42.32v16.7h5.85v5.37H0v-5.37H5.37V16.04H0v-5.37H23.35c5.74,0,10.18,1.25,13.34,3.74,3.16,2.49,4.74,5.99,4.74,10.49,0,5.71-1.91,10.04-5.74,13-3.82,2.95-9.43,4.43-16.81,4.43h-2.76Zm0-5.37h1.78c4.19,0,7.33-1,9.42-3,2.09-2,3.14-4.99,3.14-8.99,0-2.98-.9-5.21-2.69-6.7-1.79-1.49-4.49-2.23-8.1-2.23h-3.56v20.91Z"/><path class="uuid-b191bef6-6a06-4e4f-9565-5faa17ebd1eb" d="M63.5,16.04V59.02h5.37v5.37h-21.97v-5.37h5.37V16.04h-5.37v-5.37h21.97v5.37h-5.37Z"/></g><g><rect class="uuid-38175528-8fa8-4c84-be48-320e52d67a9d" x="66.87" y="5.52" width="26.67" height="26.67" transform="translate(10.16 62.24) rotate(-45)"/><g><rect class="uuid-26a4a77e-c5e8-4092-8690-c68f961c32f9" x="66.87" y="43.24" width="26.67" height="26.67" transform="translate(-16.51 73.29) rotate(-45)"/><rect class="uuid-583e9581-4a38-4ac7-b108-6a7134e429ca" x="85.73" y="24.38" width="26.67" height="26.67" transform="translate(2.35 81.1) rotate(-45)"/><rect class="uuid-40d67543-2e92-4398-a184-2c5cc64d82fb" x="104.59" y="5.52" width="26.67" height="26.67" transform="translate(21.2 88.91) rotate(-45)"/></g><rect class="uuid-1175948b-b771-4ac5-8b69-1f0953b3a372" x="104.68" y="43.33" width="26.67" height="26.67" transform="translate(-5.5 100.05) rotate(-45)"/></g></g><g><path class="uuid-b191bef6-6a06-4e4f-9565-5faa17ebd1eb" d="M17.08,99.81v-22.18h7.9v2.66h-5.04v6.63h4.62v2.66h-4.62v7.57h5.32v2.66h-8.17Z"/><path class="uuid-b191bef6-6a06-4e4f-9565-5faa17ebd1eb" d="M49.6,99.81l3.89-11.79-3.34-10.39h3.07l1.94,7.34,.06-.03,2-7.31h3.07l-3.36,10.39,3.91,11.79h-3.07l-2.55-8.22h-.07l-2.48,8.22h-3.07Z"/><path class="uuid-b191bef6-6a06-4e4f-9565-5faa17ebd1eb" d="M85.26,99.81v-22.18h3.02c2.04,0,3.67,.55,4.87,1.64s1.81,2.59,1.81,4.51-.56,3.5-1.67,4.62-2.64,1.69-4.57,1.69h-.6v9.73h-2.85Zm2.85-12.39h.5c2.32,0,3.49-1.27,3.49-3.81,0-2.28-1.33-3.39-3.99-3.32v7.13Z"/><path class="uuid-b191bef6-6a06-4e4f-9565-5faa17ebd1eb" d="M119.69,99.81v-22.18h7.9v2.66h-5.04v6.63h4.62v2.66h-4.62v7.57h5.32v2.66h-8.17Z"/><path class="uuid-b191bef6-6a06-4e4f-9565-5faa17ebd1eb" d="M153.92,99.81v-22.18h2.38c1.9,0,3.35,.56,4.35,1.68,1,1.12,1.5,2.61,1.5,4.47,0,2.11-.77,3.69-2.3,4.75,1.19,.84,2.2,3.09,3.03,6.73l1.02,4.56h-2.99l-.86-3.83c-.61-2.68-1.14-4.38-1.6-5.11s-1.02-1.06-1.69-.98v9.92h-2.85Zm2.85-12.58h.13c1.6,0,2.4-1.12,2.4-3.36,0-2.38-.84-3.57-2.53-3.58v6.94Z"/><path class="uuid-b191bef6-6a06-4e4f-9565-5faa17ebd1eb" d="M189.94,99.81v-19.52h-3.4v-2.66h9.66v2.66h-3.41v19.52h-2.85Z"/></g></g></svg>