<svg xmlns="http://www.w3.org/2000/svg" width="40" height="40" viewBox="0 0 40 40">
  <path id="Union_35" data-name="Union 35" d="M17.246,40V34.493h5.507V40ZM3.91,32.2,7.8,28.3,11.7,32.2,7.8,36.089Zm24.391,0L32.2,28.3l3.894,3.895L32.2,36.089ZM15.907,29.348a10.179,10.179,0,1,1,3.949.8A10.116,10.116,0,0,1,15.907,29.348Zm-2.138-9.2A6.232,6.232,0,1,0,20,13.913,6.239,6.239,0,0,0,13.768,20.145Zm20.724,2.608V17.246H40v5.507ZM0,22.753V17.246H5.507v5.507ZM28.3,7.8,32.2,3.91,36.089,7.8,32.2,11.7Zm-24.39,0L7.805,3.91,11.7,7.8,7.805,11.7Zm13.335-2.3V0h5.507V5.507Z" fill="#004654"/>
</svg>
