<svg xmlns="http://www.w3.org/2000/svg" width="35.998" height="34.999" viewBox="0 0 35.998 34.999">
  <g id="Message_icon" data-name="Message icon" transform="translate(-787.499 -20)">
    <rect id="_40x40_Layout" data-name="40x40 Layout" width="34.999" height="34.999" transform="translate(788 20)" opacity="0"/>
    <path id="Message_icon-2" data-name="Message icon" d="M3.238,20.23c-.145,0-.175-.081-.077-.18l6.958-6.93a.265.265,0,0,1,.37-.007l2.47,2.28a.775.775,0,0,0,.447.172h8.218a.758.758,0,0,0,.448-.172L24.6,13.061a.267.267,0,0,1,.369.007l6.888,6.979c.1.1.063.183-.079.183Zm31.581-2.569-7.247-7.19a.26.26,0,0,1,0-.363l7.247-7.264c.1-.1.179-.067.179.074V17.583c0,.087-.031.133-.076.133A.153.153,0,0,1,34.819,17.661ZM0,17.583V2.918c0-.141.081-.176.183-.074l7.243,7.264a.252.252,0,0,1,0,.363L.183,17.661a.16.16,0,0,1-.1.056C.032,17.717,0,17.67,0,17.583ZM14.842,11.9a.7.7,0,0,1-.44-.183L2.861.18c-.1-.1-.066-.18.079-.18H32.1c.14,0,.172.081.074.18L20.642,11.717a.7.7,0,0,1-.441.183Z" transform="translate(787.999 26.894)" fill="#fff" stroke="rgba(0,0,0,0)" stroke-miterlimit="10" stroke-width="1"/>
  </g>
</svg>
