<svg xmlns="http://www.w3.org/2000/svg" width="35.981" height="34.999" viewBox="0 0 35.981 34.999">
  <g id="Missed_call_icon" data-name="Missed call icon" transform="translate(12314.269 444.319)">
    <rect id="_40x40_Layout" data-name="40x40 Layout" width="34.999" height="34.999" transform="translate(-12313.771 -444.319)" opacity="0"/>
    <path id="Missed_call_icon-2" data-name="Missed call icon" d="M31.954,27.29c-1.162-.289-2.345-.679-3.5-.989-.461-.123-.957-.246-1.412-.338a5.333,5.333,0,0,1-1.4-.423c-.738-.447-.5-1.4-.475-2.067.01-.426.085-.944.113-1.387.032-.577.243-1.623-.162-2.088a3.17,3.17,0,0,0-1.4-.655,22.547,22.547,0,0,0-4.207-.834c-.247-.025-.476-.039-.712-.06-.035,0-.067,0-.1,0a.623.623,0,0,1-.081,0,15.346,15.346,0,0,0-2.127-.014H16.4a.36.36,0,0,0-.088,0l-.711.053c-.549.042-1.169.141-1.743.225a22.2,22.2,0,0,0-2.816.665c-.448.13-1.095.31-1.3.863a6.932,6.932,0,0,0,.007,2.088c.024.352.077.722.084,1.064a1.662,1.662,0,0,0,.018.183l.009.845A1.145,1.145,0,0,1,9,25.607c-.232.092-4.081,1.081-4.218,1.116-.476.12-.948.246-1.42.363a12.463,12.463,0,0,1-1.232.2c-.1.014-.1.028-.177,0-.229-.232-.49-.472-.7-.708-.116-.123-.035-.1-.247-.37a4.655,4.655,0,0,1-.718-4.545,11.3,11.3,0,0,1,1.324-2.785A8.159,8.159,0,0,1,4.33,16.643a25.918,25.918,0,0,1,2.823-1.363,24.813,24.813,0,0,1,7.588-1.8L3.5,2.352l.007,0L3.5,2.342,5.866,0,17.23,11.249,26,2.567H21.092V0h9.873V9.753H28.375V4.912l-8.667,8.574c.05.005.1.01.149.014.472.042.922.088,1.4.151a22.081,22.081,0,0,1,8.433,2.517c.474.254.936.532,1.41.817l.888.556c.088.032.081,0,.158.056l1.046,1.046a9.028,9.028,0,0,1,1.123,2.084,6.42,6.42,0,0,1,.623,3.5,3.675,3.675,0,0,1-.2.7,5.628,5.628,0,0,1-.8,1.4c-.507.673-.764,1.048-1.377,1.048A2.529,2.529,0,0,1,31.954,27.29Z" transform="translate(-12313.772 -441.415)" fill="#fff" stroke="rgba(0,0,0,0)" stroke-miterlimit="10" stroke-width="1"/>
  </g>
</svg>
