<svg xmlns="http://www.w3.org/2000/svg" width="40" height="40" viewBox="0 0 40 40">
  <g id="Group_339" data-name="Group 339" transform="translate(-25 -337.5)">
    <rect id="Option_icons" width="40" height="40" transform="translate(25 337.5)" fill="#fff" opacity="0"/>
    <path id="Music_Icon" data-name="Music Icon" d="M141.079,153.373a5.542,5.542,0,0,1,5.542-5.542h0a5.514,5.514,0,0,1,2.984.871v-5.987H135.963V153.8h-.016a5.542,5.542,0,0,1-11.068-.426h0a5.542,5.542,0,0,1,5.542-5.542h0a5.514,5.514,0,0,1,2.984.871V132.483h18.758V153.8h-.016a5.542,5.542,0,0,1-11.068-.426Z" transform="translate(-93.879 212.017)" fill="#00839e"/>
  </g>
</svg>
