<svg xmlns="http://www.w3.org/2000/svg" width="40" height="40" viewBox="0 0 40 40">
  <g id="Group_337" data-name="Group 337" transform="translate(-25 -277)">
    <rect id="Option_icons" width="40" height="40" transform="translate(25 277)" fill="#004654" opacity="0"/>
    <g id="Group_336" data-name="Group 336" transform="translate(-17.447 277)">
      <path id="Path_105" data-name="Path 105" d="M49.361,226.243v5.091l-2.541,2.541-2.55-2.541,2.55-2.55-2.55-2.541,2.55-2.55Z" transform="translate(6.288 -215.409)" fill="#004654"/>
      <g id="Group_210" data-name="Group 210" transform="translate(44.447 12.777)">
        <path id="Path_106" data-name="Path 106" d="M43.822,230.221v.413H39.768v.237H35.714v-.888h4.054v.237Z" transform="translate(-35.714 -229.983)" fill="#004654"/>
      </g>
      <path id="Path_107" data-name="Path 107" d="M47.717,235.993v2.9a2.3,2.3,0,0,0-2.3,2.313v7.026l-5.829-6.586a4.25,4.25,0,0,1,.651-6.234h.009l3.737,2.761,3.728-2.19Z" transform="translate(7.933 -218.758)" fill="#004654"/>
      <path id="Path_108" data-name="Path 108" d="M50.92,242.2v15.4a1.189,1.189,0,0,1-1.2-1.187V243.391A1.2,1.2,0,0,1,50.92,242.2Z" transform="translate(4.73 -220.696)" fill="#004654"/>
      <path id="Path_109" data-name="Path 109" d="M74.332,215.429H66.409a2.325,2.325,0,0,0,.132-.783,2.117,2.117,0,0,0-.114-.712,2.756,2.756,0,0,0-5.2,0,2.136,2.136,0,0,0-.114.712,2.325,2.325,0,0,0,.132.783H54.037a1.8,1.8,0,0,0-1.8,1.8v33.063a1.8,1.8,0,0,0,1.8,1.8H74.332a1.8,1.8,0,0,0,1.8-1.8V217.231A1.8,1.8,0,0,0,74.332,215.429Zm.106,32.544a1.8,1.8,0,0,1-1.8,1.8h-16.9a1.8,1.8,0,0,1-1.8-1.8V217.715a1.8,1.8,0,0,1,1.8-1.8h5.153l-2.383,2H69.734l-2.981-2h5.883a1.8,1.8,0,0,1,1.8,1.8Z" transform="translate(4.012 -212.096)" fill="#004654"/>
      <g id="Group_223" data-name="Group 223" transform="translate(59.473 8.848)">
        <g id="Group_212" data-name="Group 212" transform="translate(0 0)">
          <g id="Group_211" data-name="Group 211">
            <rect id="Rectangle_161" data-name="Rectangle 161" width="1.809" height="0.646" rx="0.323" transform="translate(0.457 0.799) rotate(45)" fill="#004654"/>
            <rect id="Rectangle_162" data-name="Rectangle 162" width="2.938" height="0.646" rx="0.323" transform="translate(3.372 0.457) rotate(135)" fill="#004654"/>
          </g>
          <rect id="Rectangle_163" data-name="Rectangle 163" width="12.145" height="1.32" rx="0.66" transform="translate(4.729 0.607)" fill="#004654"/>
        </g>
        <g id="Group_214" data-name="Group 214" transform="translate(0 4.554)">
          <g id="Group_213" data-name="Group 213" transform="translate(0 0)">
            <rect id="Rectangle_164" data-name="Rectangle 164" width="1.809" height="0.646" rx="0.323" transform="translate(0.457 0.799) rotate(45)" fill="#004654"/>
            <rect id="Rectangle_165" data-name="Rectangle 165" width="2.938" height="0.646" rx="0.323" transform="translate(3.372 0.457) rotate(135)" fill="#004654"/>
          </g>
          <rect id="Rectangle_166" data-name="Rectangle 166" width="12.145" height="1.32" rx="0.66" transform="translate(4.729 0.607)" fill="#004654"/>
        </g>
        <g id="Group_216" data-name="Group 216" transform="translate(0 9.107)">
          <g id="Group_215" data-name="Group 215" transform="translate(0 0)">
            <rect id="Rectangle_167" data-name="Rectangle 167" width="1.809" height="0.646" rx="0.323" transform="translate(0.457 0.799) rotate(45)" fill="#004654"/>
            <rect id="Rectangle_168" data-name="Rectangle 168" width="2.938" height="0.646" rx="0.323" transform="translate(3.372 0.457) rotate(135)" fill="#004654"/>
          </g>
          <rect id="Rectangle_169" data-name="Rectangle 169" width="12.145" height="1.32" rx="0.66" transform="translate(4.729 0.607)" fill="#004654"/>
        </g>
        <g id="Group_218" data-name="Group 218" transform="translate(0 13.661)">
          <g id="Group_217" data-name="Group 217" transform="translate(0 0)">
            <rect id="Rectangle_170" data-name="Rectangle 170" width="1.809" height="0.646" rx="0.323" transform="translate(0.457 0.799) rotate(45)" fill="#004654"/>
            <rect id="Rectangle_171" data-name="Rectangle 171" width="2.938" height="0.646" rx="0.323" transform="translate(3.372 0.457) rotate(135)" fill="#004654"/>
          </g>
          <rect id="Rectangle_172" data-name="Rectangle 172" width="12.145" height="1.32" rx="0.66" transform="translate(4.729 0.607)" fill="#004654"/>
        </g>
        <g id="Group_220" data-name="Group 220" transform="translate(0 18.214)">
          <g id="Group_219" data-name="Group 219" transform="translate(0 0)">
            <rect id="Rectangle_173" data-name="Rectangle 173" width="1.809" height="0.646" rx="0.323" transform="translate(0.457 0.799) rotate(45)" fill="#004654"/>
            <rect id="Rectangle_174" data-name="Rectangle 174" width="2.938" height="0.646" rx="0.323" transform="translate(3.372 0.457) rotate(135)" fill="#004654"/>
          </g>
          <rect id="Rectangle_175" data-name="Rectangle 175" width="12.145" height="1.32" rx="0.66" transform="translate(4.729 0.607)" fill="#004654"/>
        </g>
        <g id="Group_222" data-name="Group 222" transform="translate(0 22.768)">
          <g id="Group_221" data-name="Group 221" transform="translate(0 0)">
            <rect id="Rectangle_176" data-name="Rectangle 176" width="1.809" height="0.646" rx="0.323" transform="translate(0.457 0.799) rotate(45)" fill="#004654"/>
            <rect id="Rectangle_177" data-name="Rectangle 177" width="2.938" height="0.646" rx="0.323" transform="translate(3.372 0.457) rotate(135)" fill="#004654"/>
          </g>
          <rect id="Rectangle_178" data-name="Rectangle 178" width="12.145" height="1.32" rx="0.66" transform="translate(4.729 0.607)" fill="#004654"/>
        </g>
      </g>
    </g>
  </g>
</svg>
