<svg xmlns="http://www.w3.org/2000/svg" width="40" height="40" viewBox="0 0 40 40">
  <g id="Navigation" transform="translate(-25 -217.5)">
    <rect id="Option_icons" width="40" height="40" transform="translate(25 217.5)" fill="#fff" opacity="0"/>
    <path id="Navigation_icon" data-name="Navigation icon" d="M354.322,45.533v35.7a2.148,2.148,0,0,1-2.15,2.15H332.143V66.619h10.1v6.057l8.507-8.507-8.507-8.5v6.05h-10.1l-4.9,5V83.383H316.472a2.148,2.148,0,0,1-2.15-2.15v-35.7a2.152,2.152,0,0,1,2.15-2.15h10.771V64.9l4.9-5V43.383h20.029A2.152,2.152,0,0,1,354.322,45.533Z" transform="translate(-289.322 174.117)" fill="#00839e"/>
  </g>
</svg>
