<svg xmlns="http://www.w3.org/2000/svg" width="41.001" height="41.329" viewBox="0 0 41.001 41.329">
  <g id="Group_334" data-name="Group 334" transform="translate(-24.499 -157)">
    <rect id="Option_icons" width="40" height="40" transform="translate(25 157)" fill="#fff" opacity="0"/>
    <path id="Phone_Call" data-name="Phone Call" d="M13718.652,1106a35.429,35.429,0,0,1-4.134-1.123,34.589,34.589,0,0,1-10.379-5.654c-.526-.394-2.18-1.821-2.573-2.209l-1.384-1.352c-.111-.112-.222-.235-.327-.345-.449-.465-.869-.917-1.3-1.41a29.933,29.933,0,0,1-6.379-10.179c-.257-.687-.476-1.391-.708-2.114l-.409-1.372c-.062-.112-.082-.074-.111-.2l-.126-2.021a12.1,12.1,0,0,1,.736-3.168,8.827,8.827,0,0,1,2.527-4.181,5.422,5.422,0,0,1,.843-.547,7.884,7.884,0,0,1,2.095-.728c1.442-.312,2.028-.482,2.91.78.931,1.344,1.79,2.806,2.7,4.167.361.542.764,1.112,1.147,1.621a7.064,7.064,0,0,1,1.052,1.689c.355,1.128-.765,1.9-1.386,2.568-.4.43-.942.9-1.371,1.336-.56.567-1.72,1.462-1.729,2.305a4.373,4.373,0,0,0,.846,1.947,30.925,30.925,0,0,0,3.57,4.643c.228.244.449.463.674.7.061.066.114.1.184.167a21.243,21.243,0,0,0,2.174,1.919c.074.057.106.1.184.161l.78.581c.6.454,1.325.906,1.99,1.336a30.754,30.754,0,0,0,3.5,1.837,2.417,2.417,0,0,0,2.116.268,9.554,9.554,0,0,0,1.886-2.171c.294-.386.572-.813.877-1.175.068-.077.085-.123.147-.205l.753-.884a1.578,1.578,0,0,1,1.954-.463c.321.118,5.172,2.546,5.346,2.634.6.3,1.21.6,1.787.9s.939.58,1.451.9c.115.074.123.057.178.159l0,0c.024.449.074.928.082,1.369.008.227-.052.131-.082.6a6.441,6.441,0,0,1-3.382,5.352,15.368,15.368,0,0,1-3.882,1.7,11.193,11.193,0,0,1-4.821-.123Zm-11.962-18.037a2.875,2.875,0,1,1,2.875,2.875A2.877,2.877,0,0,1,13706.69,1087.965Zm10.04,1.689a1.684,1.684,0,0,1-1.668-1.7,5.5,5.5,0,0,0-5.5-5.5,1.684,1.684,0,0,1,0-3.367,8.865,8.865,0,0,1,8.87,8.87v.033a1.681,1.681,0,0,1-1.682,1.667Zm3.882-1.689v0a11.046,11.046,0,0,0-11.047-11.044,1.684,1.684,0,0,1,0-3.367,14.409,14.409,0,0,1,14.412,14.414,1.683,1.683,0,1,1-3.365,0Zm5.556,0v0a16.6,16.6,0,0,0-16.6-16.6,1.683,1.683,0,0,1,0-3.365h0a19.966,19.966,0,0,1,19.967,19.967,1.685,1.685,0,0,1-1.656,1.654h-.03A1.684,1.684,0,0,1,13726.168,1087.968Z" transform="translate(-13665.82 -908.501)" fill="#004654" stroke="rgba(0,0,0,0)" stroke-miterlimit="10" stroke-width="1"/>
  </g>
</svg>
