<svg xmlns="http://www.w3.org/2000/svg" width="40" height="40" viewBox="0 0 40 40">
  <g id="Group_340" data-name="Group 340" transform="translate(-25 -397)">
    <rect id="Option_icons" width="40" height="40" transform="translate(25 397)" fill="#fff" opacity="0"/>
    <path id="Exclusion_4" data-name="Exclusion 4" d="M23.056,40H16.944V34.178a14.307,14.307,0,0,1-4.876-1.925L8.019,36.3,3.7,31.982l3.99-3.99A14.318,14.318,0,0,1,5.6,23.056H0V16.945H5.6a14.307,14.307,0,0,1,2.086-4.936L3.7,8.019,8.019,3.7l4.05,4.05a14.307,14.307,0,0,1,4.876-1.925V0h6.111V5.942a14.343,14.343,0,0,1,4.658,2.023L31.982,3.7,36.3,8.019l-4.328,4.328a14.325,14.325,0,0,1,1.868,4.6H40v6.111H33.843a14.316,14.316,0,0,1-1.868,4.6L36.3,31.982,31.982,36.3l-4.268-4.268a14.343,14.343,0,0,1-4.658,2.023V40ZM19.722,14.445A5.556,5.556,0,1,0,25.278,20,5.562,5.562,0,0,0,19.722,14.445Z" transform="translate(25 397)" fill="#00839e"/>
  </g>
</svg>
