<svg xmlns="http://www.w3.org/2000/svg" width="41.119" height="40.298" viewBox="0 0 41.119 40.298">
  <g id="Navigation" transform="translate(-24.406 -217.5)">
    <rect id="Option_icons" width="40" height="40" transform="translate(25 217.5)" fill="#004654" opacity="0"/>
    <path id="Union_17" data-name="Union 17" d="M12388.169,1085.094a19.442,19.442,0,0,1-5.6-11.825q.114-.019.229-.032c.355-.044.714-.059.986-.068l.049,0,.046,0,3.5-.391a13.985,13.985,0,0,0,4.214,8.9,14.649,14.649,0,0,0,20.052.607h0l-4.644-4.642,13.628-2.015-2.052,13.591-3.506-3.508a19.471,19.471,0,0,1-26.9-.613Zm.921-12.765-.578.015Zm23.051-11.2a14.56,14.56,0,0,0-21.9,1.375l-3.447-3.447q.579-.7,1.228-1.35a19.35,19.35,0,0,1,13.771-5.7h0a19.464,19.464,0,0,1,19.433,18.309c-1.605.258-3.213.513-4.813.777A14.532,14.532,0,0,0,12412.141,1061.125Zm-28.9-5.626,3.553,3.555,3.447,3.447,4.576,4.575-13.591,2.051Z" transform="translate(-12356.225 -833.501)" fill="#004654" stroke="rgba(0,0,0,0)" stroke-miterlimit="10" stroke-width="1"/>
  </g>
</svg>
