<svg xmlns="http://www.w3.org/2000/svg" width="97.482" height="97.482" viewBox="0 0 97.482 97.482">
  <g id="Group_464" data-name="Group 464" transform="translate(-26.31 -19.47)">
    <g id="Group_463" data-name="Group 463" transform="translate(26.31 19.47)">
      <path id="Subtraction_2" data-name="Subtraction 2" d="M56.489,97.482h-15.5a2,2,0,0,1-2-2V83.814a36.174,36.174,0,0,1-8.455-3.552L22.349,88.45a2,2,0,0,1-2.828,0L8.563,77.493a2,2,0,0,1,0-2.828l8.319-8.319a36.177,36.177,0,0,1-3.214-7.857H2a2,2,0,0,1-2-2v-15.5a2,2,0,0,1,2-2H13.668a36.228,36.228,0,0,1,3.381-8.157L8.563,22.349a2,2,0,0,1,0-2.829L19.52,8.563a2,2,0,0,1,2.829,0l8.487,8.487a36.257,36.257,0,0,1,8.157-3.381V2a2,2,0,0,1,2-2h15.5a2,2,0,0,1,2,2V13.668a36.2,36.2,0,0,1,7.857,3.214l8.319-8.32a2,2,0,0,1,2.829,0L88.451,19.52a2,2,0,0,1,0,2.829l-8.189,8.189a36.226,36.226,0,0,1,3.552,8.455H95.482a2,2,0,0,1,2,2v15.5a2,2,0,0,1-2,2H83.814a36.191,36.191,0,0,1-3.382,8.157l-9.254-9.254A24.042,24.042,0,1,0,57.392,71.178l9.255,9.255a36.2,36.2,0,0,1-8.157,3.382V95.482A2,2,0,0,1,56.489,97.482Z" transform="translate(0 0)" fill="#004654"/>
      <path id="Subtraction_3" data-name="Subtraction 3" d="M55.414,60.02h0a8.488,8.488,0,0,1-5.855-2.648l-22.57-22.59A18.426,18.426,0,0,1,0,18.446a18.523,18.523,0,0,1,.624-4.778l9.658,9.669a2.3,2.3,0,0,0,3.257,0l9.771-9.782a2.311,2.311,0,0,0,0-3.261L13.652.625A18.454,18.454,0,0,1,35,26.5L57.7,49.219c2.946,2.949,3.517,7.177,1.272,9.424A4.892,4.892,0,0,1,55.414,60.02Z" transform="translate(29.246 29.244)" fill="#004654"/>
    </g>
  </g>
</svg>
