<svg xmlns="http://www.w3.org/2000/svg" width="40" height="40" viewBox="0 0 40 40">
  <g id="Navigation" transform="translate(-25 -214.5)">
    <rect id="Option_icons" width="40" height="40" transform="translate(25 214.5)" fill="#004654" opacity="0"/>
    <g id="Group_462" data-name="Group 462" transform="translate(11193 1427.5)">
      <path id="Subtraction_2" data-name="Subtraction 2" d="M22,40H18a2,2,0,0,1-2-2V34.392a14.813,14.813,0,0,1-3.47-1.458L10,35.46a2,2,0,0,1-2.829,0L4.348,32.632a2,2,0,0,1,0-2.829l2.579-2.579A14.9,14.9,0,0,1,5.609,24H2a2,2,0,0,1-2-2V18a2,2,0,0,1,2-2H5.609A14.828,14.828,0,0,1,7,12.653L4.348,10a2,2,0,0,1,0-2.829L7.176,4.348a2,2,0,0,1,2.829,0L12.653,7A14.835,14.835,0,0,1,16,5.609V2a2,2,0,0,1,2-2h4a2,2,0,0,1,2,2V5.609a14.837,14.837,0,0,1,3.224,1.318L29.8,4.348a2,2,0,0,1,2.829,0L35.46,7.176a2,2,0,0,1,0,2.829l-2.526,2.526A14.84,14.84,0,0,1,34.392,16H38a2,2,0,0,1,2,2v4a2,2,0,0,1-2,2H34.392A14.877,14.877,0,0,1,33,27.347l-3.8-3.8a9.866,9.866,0,1,0-5.657,5.657l3.8,3.8A14.836,14.836,0,0,1,24,34.392V38A2,2,0,0,1,22,40Z" transform="translate(-11168 -1213)" fill="#004654"/>
      <path id="Subtraction_3" data-name="Subtraction 3" d="M22.738,24.628h0a3.483,3.483,0,0,1-2.4-1.086l-9.261-9.269A7.561,7.561,0,0,1,0,7.569a7.6,7.6,0,0,1,.256-1.96L4.219,9.576a.945.945,0,0,0,1.337,0L9.565,5.562a.948.948,0,0,0,0-1.338L5.6.256a7.572,7.572,0,0,1,8.761,10.619L23.676,20.2c1.209,1.21,1.443,2.945.522,3.867A2.007,2.007,0,0,1,22.738,24.628Z" transform="translate(-11156 -1201)" fill="#004654"/>
    </g>
  </g>
</svg>
