<svg xmlns="http://www.w3.org/2000/svg" width="40" height="40" viewBox="0 0 40 40">
  <g id="Navigation" transform="translate(-25 -214.5)">
    <rect id="Option_icons" width="40" height="40" transform="translate(25 214.5)" fill="#004654" opacity="0"/>
    <path id="Union_47" data-name="Union 47" d="M5.272,30.728A18,18,0,1,1,30.728,5.272,18,18,0,1,1,5.272,30.728ZM3,18A15,15,0,1,0,18,3,15.018,15.018,0,0,0,3,18Zm12,0a3,3,0,0,1,2-2.83V5h2V15.17A3.009,3.009,0,0,1,20.83,17H27v2H20.83A3,3,0,0,1,15,18Z" transform="translate(27 216.5)" fill="#004654"/>
  </g>
</svg>
