<svg xmlns="http://www.w3.org/2000/svg" width="40.001" height="40" viewBox="0 0 40.001 40">
  <g id="Navigation" transform="translate(-25 -221.5)">
    <rect id="Option_icons" width="40" height="40" transform="translate(25 221.5)" fill="#004654" opacity="0"/>
    <path id="Union_34" data-name="Union 34" d="M20.49,36.018a11.429,11.429,0,1,1,8.081,3.347A11.354,11.354,0,0,1,20.49,36.018Zm-1.443-8.082a9.524,9.524,0,1,0,9.524-9.524A9.535,9.535,0,0,0,19.048,27.936Zm-.638,7.619H2a2,2,0,0,1-2-2V2A2,2,0,0,1,2,0H33.556a2,2,0,0,1,2,2V17.33a12.627,12.627,0,0,0-3.54-1.619V5.54a2,2,0,0,0-2-2H5.54a2,2,0,0,0-2,2V30.016a2,2,0,0,0,2,2h11a12.645,12.645,0,0,0,1.868,3.538l0,0Zm7.622-7.618a2.54,2.54,0,0,1,1.9-2.46v-5.8a.635.635,0,0,1,1.27,0v5.8A2.542,2.542,0,0,1,31.031,27.3h3.254a.635.635,0,1,1,0,1.27H31.031a2.54,2.54,0,0,1-5-.635ZM7.714,26.667a2,2,0,0,1-2-2V22.953a2,2,0,0,1,2-2H9.428a2,2,0,0,1,2,2v1.714a2,2,0,0,1-2,2ZM16.6,19.682a2,2,0,0,1-2-2V15.969a2,2,0,0,1,2-2h1.715a2,2,0,0,1,2,2v1.714a2,2,0,0,1-2,2Zm-8.889,0a2,2,0,0,1-2-2V15.969a2,2,0,0,1,2-2H9.428a2,2,0,0,1,2,2v1.714a2,2,0,0,1-2,2ZM25.493,12.7a2,2,0,0,1-2-2V8.984a2,2,0,0,1,2-2h1.714a2,2,0,0,1,2,2V10.7a2,2,0,0,1-2,2Zm-8.889,0a2,2,0,0,1-2-2V8.984a2,2,0,0,1,2-2h1.715a2,2,0,0,1,2,2V10.7a2,2,0,0,1-2,2Zm-8.889,0a2,2,0,0,1-2-2V8.984a2,2,0,0,1,2-2H9.428a2,2,0,0,1,2,2V10.7a2,2,0,0,1-2,2Z" transform="translate(25 221.5)" fill="#004654"/>
  </g>
</svg>
