<svg xmlns="http://www.w3.org/2000/svg" width="41" height="40" viewBox="0 0 41 40">
  <g id="Navigation" transform="translate(-24.5 -221.5)">
    <rect id="Option_icons" width="40" height="40" transform="translate(25 221.5)" fill="#00839e" opacity="0"/>
    <path id="Union_48" data-name="Union 48" d="M31.354,31.408V29.394H30.168v2.013H25.975V29.394H24.789v2.013h-4.2V29.394H19.411v2.013h-4.2V29.394H14.032v2.013h-4.2V29.394H8.653v2.013H6.373V27.244A19.977,19.977,0,0,1,3.818.864l.061.085A6.485,6.485,0,0,1,5.066,3.542c.481,2.2-.131,4.277-1.408,5.187a16.774,16.774,0,0,0,6,17.124H30.344A16.776,16.776,0,0,0,36.449,9.2a2.413,2.413,0,0,1-.742-.046c-1.882-.421-2.938-2.93-2.349-5.616A5.956,5.956,0,0,1,35.409.076.817.817,0,0,1,35.516,0,19.964,19.964,0,0,1,40,12.616a19.855,19.855,0,0,1-5.632,13.9v4.889Zm-.385-13.061a3.269,3.269,0,0,1-1.151-.851,3.793,3.793,0,0,1-.737-1.331l1.672-.628a2.746,2.746,0,0,0,.735.964,1.549,1.549,0,0,0,1.008.376,1.677,1.677,0,0,0,.886-.2.662.662,0,0,0,.335-.6.555.555,0,0,0-.193-.432,1.735,1.735,0,0,0-.54-.305c-.231-.09-.5-.183-.808-.283s-.631-.214-.954-.338a4.037,4.037,0,0,1-.892-.464,2.168,2.168,0,0,1-.656-.72,2.2,2.2,0,0,1-.249-1.1,2.162,2.162,0,0,1,.344-1.185,2.41,2.41,0,0,1,1-.863,3.554,3.554,0,0,1,1.585-.323,3.186,3.186,0,0,1,1.37.282,2.81,2.81,0,0,1,1.547,1.84l-1.66.545a1.83,1.83,0,0,0-.483-.643,1.62,1.62,0,0,0-1.589-.094.531.531,0,0,0-.252.477.413.413,0,0,0,.171.328,1.8,1.8,0,0,0,.481.258c.206.079.446.163.724.254q.526.172,1.046.379a4.517,4.517,0,0,1,.943.51,2.427,2.427,0,0,1,.509,3.269,2.646,2.646,0,0,1-1.126.874,4,4,0,0,1-1.586.3A3.6,3.6,0,0,1,30.969,18.347Zm-9.132-3.913c0-.012-.01-.029-.018-.05s-.017-.052-.029-.092V18.5H19.917V10.2h1.908l1.9,4.127c.043.086.081.169.113.245s.061.161.088.252c.031-.091.062-.178.092-.261a2.141,2.141,0,0,1,.1-.236L26.082,10.2h1.743v8.3H25.951V14.292l-.033.068a.389.389,0,0,1-.026.051l-2.016,4.232ZM12.246,18.5V10.2H15.97a3.225,3.225,0,0,1,1.711.4A2.3,2.3,0,0,1,18.6,11.6a3.072,3.072,0,0,1,.278,1.278,2.848,2.848,0,0,1-.163.939,2.572,2.572,0,0,1-.509.866,2.518,2.518,0,0,1-.9.634,3.32,3.32,0,0,1-1.33.24H14.12V18.5Zm1.873-4.706H16.04a.887.887,0,0,0,.516-.137.8.8,0,0,0,.284-.347,1.1,1.1,0,0,0,.088-.43,1.158,1.158,0,0,0-.08-.41.787.787,0,0,0-.276-.359.876.876,0,0,0-.533-.144H14.12ZM6.8,18.5V12H4.422V10.2h6.651V12H8.678v6.5Zm16.405-6.986L22.442,9.7h0L19.749,3.319,22.966,9.7h0l.917,1.818ZM31.88,9.957a9.05,9.05,0,0,0-17.916,0h-.992a10.02,10.02,0,0,1,19.879,0Z" transform="translate(25 226.5)" fill="#00839e" stroke="rgba(0,0,0,0)" stroke-miterlimit="10" stroke-width="1"/>
  </g>
</svg>
