<svg xmlns="http://www.w3.org/2000/svg" width="95.508" height="95" viewBox="0 0 95.508 95">
  <g id="Group_543" data-name="Group 543" transform="translate(-13.809)">
    <g id="Trips" transform="translate(14.309 12.269)">
      <path id="Exclusion_2" data-name="Exclusion 2" d="M11.251,39.727l0,0C11.137,39.495,0,16.734,0,12.107,0,5.431,5.047,0,11.251,0S22.5,5.431,22.5,12.107c0,3.173-11.138,27.373-11.251,27.617Zm0-35.117a6.849,6.849,0,0,0-6.577,7.078,6.85,6.85,0,0,0,6.577,7.08,6.85,6.85,0,0,0,6.575-7.08A6.849,6.849,0,0,0,11.251,4.609Z" transform="translate(72.005)" fill="#00839e" stroke="rgba(0,0,0,0)" stroke-miterlimit="10" stroke-width="1"/>
      <path id="Exclusion_1" data-name="Exclusion 1" d="M18.323,64.7v0C18.139,64.325,0,27.264,0,19.722A20.378,20.378,0,0,1,5.367,5.775a17.419,17.419,0,0,1,25.911,0,20.374,20.374,0,0,1,5.366,13.946c0,5.075-17.571,43.349-18.319,44.976Zm0-56.4c-5.849,0-10.608,5.122-10.608,11.417S12.475,31.14,18.323,31.14,28.93,26.017,28.93,19.722,24.172,8.3,18.323,8.3Z" transform="translate(0 5.821)" fill="#00839e" stroke="rgba(0,0,0,0)" stroke-miterlimit="10" stroke-width="1"/>
      <path id="Path_101" data-name="Path 101" d="M294.475,75.726,261.9,79.609l-7.072,24.451-23.038.577,5.036-11.072,12,.577,8.894-20.3,34.5.577Z" transform="translate(-211.219 -34.115)" fill="#00839e"/>
    </g>
    <rect id="Rectangle_368" data-name="Rectangle 368" width="95" height="95" transform="translate(14.309)" fill="none"/>
  </g>
</svg>
