<svg xmlns="http://www.w3.org/2000/svg" width="40" height="40" viewBox="0 0 40 40">
  <g id="Turbo_Icon" data-name="Turbo Icon" transform="translate(-761 -92)">
    <rect id="Layout" width="40" height="40" transform="translate(761 92)" opacity="0"/>
    <path id="Turbo_Icon-2" data-name="Turbo Icon" d="M632.4,59.06l2.984-6.578L625.8,57.968a14.2,14.2,0,0,0-3.074,27.743l-1.713,6.771,3.447-6.363A14.2,14.2,0,0,0,632.4,59.06ZM623.3,83.451a11.87,11.87,0,0,1,1.464-23.012l-4.823,15.675,5.371-.613Zm3.547.54a11.9,11.9,0,0,1-1.2-.06l8.308-15.336-6.292.92,3.78-8.335a11.869,11.869,0,0,1-4.6,22.811Z" transform="translate(154.351 39.518)" fill="red"/>
  </g>
</svg>
