<svg xmlns="http://www.w3.org/2000/svg" width="40" height="40" viewBox="0 0 40 40">
  <g id="Navigation" transform="translate(-25 -214.5)">
    <rect id="Option_icons" width="40" height="40" transform="translate(25 214.5)" fill="#00839e" opacity="0"/>
    <path id="Union_23" data-name="Union 23" d="M13.831,22.256A22.97,22.97,0,0,1,8.292,19.9,23.22,23.22,0,0,1,0,11.544a23.222,23.222,0,0,1,8.292-8.36,23.076,23.076,0,0,1,23.416,0A23.219,23.219,0,0,1,40,11.544a23.217,23.217,0,0,1-8.292,8.36,22.959,22.959,0,0,1-5.539,2.351A23.143,23.143,0,0,1,20,23.089,23.141,23.141,0,0,1,13.831,22.256ZM3.435,11.544a19.056,19.056,0,0,0,33.131,0,19.057,19.057,0,0,0-33.131,0Zm8.36-.1A8.205,8.205,0,1,1,20,19.654,8.205,8.205,0,0,1,11.795,11.449Z" transform="translate(25 222.5)" fill="#00839e"/>
  </g>
</svg>
